# Blender 5.0.1
# www.blender.org
mtllib 3D_VFX_MuzzlePlane.mtl
o GEO_MuzzlePlane
v -1.000000 0.000000 0.000000
v 1.000000 0.000000 0.000000
v -1.000000 0.000000 -2.000000
v 1.000000 0.000000 -2.000000
v 0.000000 1.000000 0.000000
v 0.000000 -1.000000 0.000000
v 0.000000 1.000000 -2.000000
v 0.000000 -1.000000 -2.000000
vn -0.0000 1.0000 -0.0000
vn 1.0000 -0.0000 -0.0000
vt 0.000000 1.000000
vt 0.000000 0.000000
vt 1.000000 0.000000
vt 1.000000 1.000000
vt 0.000000 0.000000
vt 1.000000 0.000000
vt 1.000000 1.000000
s 0
f 1/1/1 2/2/1 4/3/1 3/4/1
f 5/1/2 6/5/2 8/6/2 7/7/2
